<svg width="512" height="512" xmlns="http://www.w3.org/2000/svg">
 <g>
  <title>Layer 1</title>
  <g id="svg_43">
   <ellipse stroke="#ffffff" ry="192" rx="192" id="svg_41" cy="256" cx="256" stroke-width="44" fill="none"/>
   <ellipse stroke="#6b6b6b" ry="192" rx="192" id="svg_40" cy="256" cx="256" stroke-width="30" fill="none"/>
  </g>
  <g id="svg_46">
   <path stroke="#ffffff" stroke-width="15" id="svg_39" d="m399.213115,207.078305c0.31,-0.149932 23.717718,-1.892377 24.81,-1.94c1.092282,-0.047623 19.38,26.72 29.05,40.09c4.12,5.37 8.06,10.99 13.05,15.63c2.37,-17.93 -1.862282,-53.07 -0.94,-53.86c0.922282,-0.79 28.44791,-1.94276 28.82,-0.79c0.37209,1.15276 -1.267718,99.397333 -1.74,99.92c-0.472282,0.522667 -23.52216,1.13411 -25.39676,-1.58568c-12.58,-16.21 -26.63324,-36.82432 -40.20324,-52.25432c-0.58,17.8 0.778483,53.213733 0.39,53.4c-0.388483,0.186267 -26.492992,1.369454 -27.5,0.53c-1.007008,-0.839454 -0.03,-20.82 0.03,-31.16c1.65,-22.65 -0.68,-67.830068 -0.37,-67.98z" fill="#6b6b6b"/>
   <path stroke-width="15" stroke="#ffffff" id="svg_38" d="m323.863515,239.531631c9.63,-5.95 23.7,-8.66 33.24,-1.16c1.7,1.03 3.56,2.34 5.28,3.49c0.78,-2.07 1.451448,-5.620546 2.34,-6.2c0.888552,-0.579454 21.324276,2.658524 21.65,3.48c0.325724,0.821476 -0.52582,64.703251 -0.97,65.14c-0.44418,0.436749 -23.113538,1.846817 -23.89,0.86c-0.776462,-0.986817 -0.93,-5.49 -1.45,-8.3c-4.29,3.04 -8.13,7.2 -13.4,8.52c-6.43,1.13 -13.56,1.11 -19.26,-2.46c-22.57,-12.24 -24.04,-48.57 -3.54,-63.37z" fill="#6b6b6b"/>
   <path stroke="#ffffff" stroke-width="15" id="svg_37" d="m242.065715,218.489968c2.05347,-0.925273 51.773183,-0.955915 52.29,-0.08c0.516817,0.875915 -1.757363,20.818811 -3.05,21.09c-1.292637,0.271189 -20.12,-0.96 -30.18,-1.03c-0.39,3.26 -0.74,6.53 -1.08,9.81c10.13,-0.38 21.37,-1.64 30.36,4.07c15.56,9.15 16.43,32.63 4.87,45.26c-4.21,3.85 -9.44,6.74 -15.06,7.89c-14.99,3.42 -44.812349,-1.043087 -45.49,-2.55c-0.677651,-1.506913 0.259262,-20.214276 1.14,-20.8c0.880738,-0.585724 21.14,6.19 32.67,2.72c5.36,-1.98 7.49,-9.4 4.39,-14.08c-8.56,-8.94 -32.269262,-3.665273 -32.73,-4.22c-0.460738,-0.554727 -0.18347,-47.154727 1.87,-48.08z" fill="#f9810c"/>
   <path stroke="#ffffff" stroke-width="15" id="svg_36" d="m169.093515,218.489968c2.05347,-0.925273 51.773183,-0.955915 52.29,-0.08c0.516817,0.875915 -1.757363,20.818811 -3.05,21.09c-1.292637,0.271189 -20.12,-0.96 -30.18,-1.03c-0.39,3.26 -0.74,6.53 -1.08,9.81c10.13,-0.38 21.37,-1.64 30.36,4.07c15.56,9.15 16.43,32.63 4.87,45.26c-4.21,3.85 -9.44,6.74 -15.06,7.89c-14.99,3.42 -44.812349,-1.043087 -45.49,-2.55c-0.677651,-1.506913 0.259262,-20.214276 1.14,-20.8c0.880738,-0.585724 21.14,6.19 32.67,2.72c5.36,-1.98 7.49,-9.4 4.39,-14.08c-8.56,-8.94 -32.269262,-3.665273 -32.73,-4.22c-0.460738,-0.554727 -0.18347,-47.154727 1.87,-48.08z" fill="#f9810c"/>
   <path stroke="#ffffff" stroke-width="15" id="svg_35" d="m137.733515,205.080028c8.88,-2 19.11,6.31 16.07,15.8c-1.24,8.2 -11.42,9.7 -18.06,8.16c-8.16,-0.95 -12.9,-12.26 -7.4,-18.55c2.12,-3.11 5.68,-5.06 9.39,-5.41z" fill="#6b6b6b"/>
   <path stroke-width="15" stroke="#ffffff" id="svg_34" d="m125.813515,237.949968c0.470997,-0.929386 27.311093,-1.309386 27.88,-0.25c0.568907,1.059386 -0.935628,66.850546 -1.36,67.83c-0.424372,0.979454 -23.853538,0.237363 -25.01,0c-1.156462,-0.237363 -1.980997,-66.650614 -1.51,-67.58z" fill="#6b6b6b"/>
   <path stroke="#ffffff" stroke-width="15" id="svg_33" d="m18.273515,207.078305c0.31,-0.149932 23.717718,-1.892377 24.81,-1.94c1.092282,-0.047623 19.38,26.72 29.05,40.09c4.12,5.37 8.06,10.99 13.05,15.63c2.37,-17.93 -1.862282,-53.07 -0.94,-53.86c0.922282,-0.79 28.44791,-1.94276 28.82,-0.79c0.37209,1.15276 -1.267718,99.397333 -1.74,99.92c-0.472282,0.522667 -23.52216,1.13411 -25.39676,-1.58568c-12.58,-16.21 -26.63324,-36.82432 -40.20324,-52.25432c-0.58,17.8 0.778483,53.213733 0.39,53.4c-0.388483,0.186267 -26.492992,1.369454 -27.5,0.53c-1.007008,-0.839454 -0.03,-20.82 0.03,-31.16c1.65,-22.65 -0.68,-67.830068 -0.37,-67.98z" fill="#6b6b6b"/>
   <path id="svg_3" d="m399.253515,206.958305c8.32,-0.62 16.67,-0.95 24.97,-1.88c8.14,10.9 16.16,21.9 24.01,33.02c5.74,7.73 11.08,15.96 18.35,22.38c1.59,-17.89 -0.98,-35.76 -0.74,-53.65c9.51,-0.54 19.02,-0.76 28.55,-0.9c-0.75,33.26 -1.2,66.52 -1.38,99.8c-8.22,0.15 -16.42,0.24 -24.62,0.34c-13.86,-17.66 -26.18,-36.56 -41.25,-53.23c0.17,17.64 0.37,35.29 -0.13,52.93c-9.15,0.14 -18.29,0.16 -27.43,0.05c-0.76,-17.95 1.07,-35.85 0.79,-53.79c-0.02,-15.04 -1.02,-30.05 -1.12,-45.07z" fill="#6b6b6b"/>
   <path id="svg_4" d="m137.733515,205.080028c8.88,-2 19.11,6.31 16.07,15.8c-1.24,8.2 -11.42,9.7 -18.06,8.16c-8.16,-0.95 -12.9,-12.26 -7.4,-18.55c2.12,-3.11 5.68,-5.06 9.39,-5.41z" fill="#6b6b6b"/>
   <path id="svg_5" d="m169.093515,218.489968c17.39,-1.42 34.89,-1.41 52.29,-0.08c-0.72,7.06 -1.51,14.14 -3.05,21.09c-10.05,-0.55 -20.12,-0.96 -30.18,-1.03c-0.39,3.26 -0.74,6.53 -1.08,9.81c10.13,-0.38 21.37,-1.64 30.36,4.07c15.56,9.15 16.43,32.63 4.87,45.26c-4.21,3.85 -9.44,6.74 -15.06,7.89c-14.99,3.42 -30.96,2.42 -45.49,-2.55c0.41,-6.97 0.97,-13.92 1.14,-20.8c11.27,2.63 21.14,6.19 32.67,2.72c5.36,-1.98 7.49,-9.4 4.39,-14.08c-8.56,-8.94 -21.88,-4.16 -32.73,-4.22c-0.04,-16.04 -0.65,-32.18 1.87,-48.08z" fill="#f9810c"/>
   <path id="svg_6" d="m242.193515,218.489968c17.39,-1.42 34.89,-1.41 52.29,-0.08c-0.72,7.06 -1.51,14.14 -3.05,21.09c-10.05,-0.55 -20.12,-0.96 -30.18,-1.03c-0.39,3.26 -0.74,6.53 -1.08,9.81c10.13,-0.38 21.37,-1.64 30.36,4.07c15.56,9.15 16.43,32.63 4.87,45.26c-4.21,3.85 -9.44,6.74 -15.06,7.89c-14.99,3.42 -30.96,2.42 -45.49,-2.55c0.41,-6.97 0.97,-13.92 2.14,-20.8c10.27,2.63 21.14,6.19 31.67,2.72c5.36,-1.98 7.49,-9.4 4.39,-14.08c-8.56,-8.94 -21.88,-4.16 -32.73,-4.22c-0.04,-16.04 -0.65,-32.18 1.87,-48.08z" fill="#f9810c"/>
   <path id="svg_7" d="m323.863515,239.531631c9.63,-5.95 23.7,-8.66 33.24,-1.16c1.7,1.03 3.56,2.34 5.28,3.49c0.78,-2.07 1.58,-4.13 2.34,-6.2c7.32,0.41 14.48,2.06 21.65,3.48c-2.89,21.6 -2.01,43.43 -0.97,65.14c-7.97,0.4 -15.94,0.61 -23.89,0.86c-0.56,-2.88 -0.93,-5.49 -1.45,-8.3c-4.29,3.04 -8.13,7.2 -13.4,8.52c-6.43,1.13 -13.56,1.11 -19.26,-2.46c-22.57,-12.24 -24.04,-48.57 -3.54,-63.37z" fill="#6b6b6b"/>
   <path id="svg_8" d="m125.813515,237.949968c9.29,0.09 18.59,0.28 27.88,-0.25c-1.41,22.58 -1.62,45.21 -1.36,67.83c-8.34,-0.01 -16.68,-0.01 -25.01,0c-0.11,-22.53 0.74,-45.13 -1.51,-67.58z" fill="#6b6b6b"/>
   <path id="svg_29" d="m332.81304,268.613752c0,-7.19246 6.488774,-12.828433 14.244564,-13.161643c7.75579,-0.3332 14.411173,4.303146 14.077963,14.994286c-0.33321,10.69114 -7.155193,14.494474 -15.910593,12.995044c-8.7554,-1.49942 -12.411934,-7.635217 -12.411934,-14.827687z" stroke-opacity="null" stroke-linecap="null" stroke-linejoin="null" stroke-width="null" stroke="null" fill-opacity="null" fill="#ffffff"/>
   <path id="svg_45" d="m18.524206,206.958305c8.32,-0.62 16.67,-0.95 24.97,-1.88c8.14,10.9 16.16,21.9 24.01,33.02c5.74,7.73 11.08,15.96 18.35,22.38c1.59,-17.89 -0.98,-35.76 -0.74,-53.65c9.51,-0.54 19.02,-0.76 28.55,-0.9c-0.75,33.26 -1.2,66.52 -1.38,99.8c-8.22,0.15 -16.42,0.24 -24.62,0.34c-13.86,-17.66 -26.18,-36.56 -41.25,-53.23c0.17,17.64 0.37,35.29 -0.13,52.93c-9.15,0.14 -18.29,0.16 -27.43,0.05c-0.76,-17.95 1.07,-35.85 0.79,-53.79c-0.02,-15.04 -1.02,-30.05 -1.12,-45.07z" fill="#6b6b6b"/>
  </g>
 </g>
</svg>