<?xml version="1.0" standalone="no"?>
<!DOCTYPE svg PUBLIC "-//W3C//DTD SVG 20010904//EN"
 "http://www.w3.org/TR/2001/REC-SVG-20010904/DTD/svg10.dtd">
<svg version="1.0" xmlns="http://www.w3.org/2000/svg"
 width="752.000000pt" height="752.000000pt" viewBox="0 0 752.000000 752.000000"
 preserveAspectRatio="xMidYMid meet">

<g transform="translate(0.000000,752.000000) scale(0.100000,-0.100000)"
fill="#000000" stroke="none">
<path d="M6530 6514 c-84 -23 -216 -101 -415 -245 -99 -72 -218 -158 -265
-192 -183 -133 -457 -341 -487 -370 -40 -37 -44 -78 -11 -101 54 -38 105 -15
308 139 296 225 707 521 714 514 2 -2 -10 -29 -28 -59 -18 -30 -51 -89 -73
-130 -23 -41 -74 -131 -113 -200 -40 -69 -81 -140 -91 -157 -11 -18 -27 -48
-38 -65 -10 -18 -60 -103 -111 -188 -343 -572 -642 -1013 -1005 -1485 -700
-911 -1488 -1647 -2320 -2167 -420 -262 -833 -462 -1327 -642 -50 -18 -98 -65
-98 -95 0 -10 8 -25 18 -34 34 -31 92 -21 289 54 1255 473 2394 1335 3439
2604 180 219 378 484 645 865 54 76 310 469 382 585 65 105 214 350 237 389
205 356 260 449 260 440 0 -25 -145 -405 -454 -1189 -68 -172 -72 -184 -60
-203 27 -42 172 -15 207 40 28 43 523 1329 577 1498 33 105 43 162 38 230 -5
70 -33 136 -67 157 -31 19 -95 22 -151 7z"/>
</g>
</svg>
